<?xml version="1.0" standalone="no"?><!DOCTYPE svg PUBLIC "-//W3C//DTD SVG 1.1//EN" "http://www.w3.org/Graphics/SVG/1.1/DTD/svg11.dtd"><svg t="1743514247815" class="icon" viewBox="0 0 1024 1024" version="1.1" xmlns="http://www.w3.org/2000/svg" p-id="1283" width="256" height="256" xmlns:xlink="http://www.w3.org/1999/xlink"><path d="M512 512m-512 0a512 512 0 1 0 1024 0 512 512 0 1 0-1024 0Z" fill="#FFFFFF" p-id="1284"></path><path d="M512 0a512 512 0 0 0 0 1024 512 512 0 0 0 0-1024z m-200.874667 867.669333l32.597334-71.168A324.181333 324.181333 0 0 1 188.757333 597.333333v-0.170666a324.949333 324.949333 0 0 1 229.888-397.909334c5.205333-1.365333 10.581333-2.645333 15.872-3.754666l40.362667 84.309333a235.178667 235.178667 0 0 0-93.610667 435.029333l37.461334-81.834666 88.405333 182.613333-196.010667 52.053333z m505.344-218.538666a324.266667 324.266667 0 0 1-211.285333 177.92c-3.754667 1.024-7.594667 1.877333-11.434667 2.816l-40.448-83.712a235.093333 235.093333 0 0 0 90.794667-433.408l-36.181333 78.08-87.722667-182.954667 196.266667-51.456-34.474667 74.581333a324.437333 324.437333 0 0 1 134.485333 418.133334z" fill="#09BB07" p-id="1285"></path></svg>